<?xml version="1.0" encoding="UTF-8" standalone="no"?>
<!DOCTYPE svg PUBLIC "-//W3C//DTD SVG 1.1//EN"
 "http://www.w3.org/Graphics/SVG/1.1/DTD/svg11.dtd">
<!-- Generated by graphviz version 2.40.1 (0)
 -->
<!-- Title: CapitiCNN Pages: 1 -->
<svg width="144pt" height="457pt"
 viewBox="0.00 0.00 144.00 457.00" xmlns="http://www.w3.org/2000/svg" xmlns:xlink="http://www.w3.org/1999/xlink">
<g id="graph0" class="graph" transform="scale(1 1) rotate(0) translate(4 453)">
<title>CapitiCNN</title>
<polygon fill="#ffffff" stroke="transparent" points="-4,4 -4,-453 140,-453 140,4 -4,4"/>
<!-- in -->
<g id="node1" class="node">
<title>in</title>
<path fill="#eef6ff" stroke="#000000" d="M85.5,-449C85.5,-449 50.5,-449 50.5,-449 44.5,-449 38.5,-443 38.5,-437 38.5,-437 38.5,-425 38.5,-425 38.5,-419 44.5,-413 50.5,-413 50.5,-413 85.5,-413 85.5,-413 91.5,-413 97.5,-419 97.5,-425 97.5,-425 97.5,-437 97.5,-437 97.5,-443 91.5,-449 85.5,-449"/>
<text text-anchor="middle" x="68" y="-434" font-family="Helvetica,sans-Serif" font-size="10.00" fill="#000000">token_ids</text>
<text text-anchor="middle" x="68" y="-423" font-family="Helvetica,sans-Serif" font-size="10.00" fill="#000000">(B, 800)</text>
</g>
<!-- embed -->
<g id="node2" class="node">
<title>embed</title>
<path fill="#ffffff" stroke="#000000" d="M88.5,-381C88.5,-381 47.5,-381 47.5,-381 41.5,-381 35.5,-375 35.5,-369 35.5,-369 35.5,-357 35.5,-357 35.5,-351 41.5,-345 47.5,-345 47.5,-345 88.5,-345 88.5,-345 94.5,-345 100.5,-351 100.5,-357 100.5,-357 100.5,-369 100.5,-369 100.5,-375 94.5,-381 88.5,-381"/>
<text text-anchor="middle" x="68" y="-366" font-family="Helvetica,sans-Serif" font-size="10.00" fill="#000000">Embedding</text>
<text text-anchor="middle" x="68" y="-355" font-family="Helvetica,sans-Serif" font-size="10.00" fill="#000000">22 &#45;&gt; 32</text>
</g>
<!-- in&#45;&gt;embed -->
<g id="edge1" class="edge">
<title>in&#45;&gt;embed</title>
<path fill="none" stroke="#000000" d="M68,-412.7772C68,-406.2221 68,-398.6616 68,-391.4444"/>
<polygon fill="#000000" stroke="#000000" points="71.5001,-391.273 68,-381.2731 64.5001,-391.2731 71.5001,-391.273"/>
</g>
<!-- stem -->
<g id="node3" class="node">
<title>stem</title>
<path fill="#ffffff" stroke="#000000" d="M93.5,-313C93.5,-313 42.5,-313 42.5,-313 36.5,-313 30.5,-307 30.5,-301 30.5,-301 30.5,-289 30.5,-289 30.5,-283 36.5,-277 42.5,-277 42.5,-277 93.5,-277 93.5,-277 99.5,-277 105.5,-283 105.5,-289 105.5,-289 105.5,-301 105.5,-301 105.5,-307 99.5,-313 93.5,-313"/>
<text text-anchor="middle" x="68" y="-298" font-family="Helvetica,sans-Serif" font-size="10.00" fill="#000000">Conv1d stem</text>
<text text-anchor="middle" x="68" y="-287" font-family="Helvetica,sans-Serif" font-size="10.00" fill="#000000">32 &#45;&gt; 64, k=1</text>
</g>
<!-- embed&#45;&gt;stem -->
<g id="edge2" class="edge">
<title>embed&#45;&gt;stem</title>
<path fill="none" stroke="#000000" d="M68,-344.7772C68,-338.2221 68,-330.6616 68,-323.4444"/>
<polygon fill="#000000" stroke="#000000" points="71.5001,-323.273 68,-313.2731 64.5001,-323.2731 71.5001,-323.273"/>
</g>
<!-- blk -->
<g id="node4" class="node">
<title>blk</title>
<path fill="#fff6d6" stroke="#000000" d="M124,-245C124,-245 12,-245 12,-245 6,-245 0,-239 0,-233 0,-233 0,-216 0,-216 0,-210 6,-204 12,-204 12,-204 124,-204 124,-204 130,-204 136,-210 136,-216 136,-216 136,-233 136,-233 136,-239 130,-245 124,-245"/>
<text text-anchor="middle" x="68" y="-233" font-family="Helvetica,sans-Serif" font-size="10.00" fill="#000000">ResidualDilatedBlock &#160;(x 5)</text>
<text text-anchor="middle" x="68" y="-222" font-family="Helvetica,sans-Serif" font-size="10.00" fill="#000000">channels=64, k=5</text>
<text text-anchor="middle" x="68" y="-211" font-family="Helvetica,sans-Serif" font-size="10.00" fill="#000000">dilations=[1, 2, 4, 8, 16]</text>
</g>
<!-- stem&#45;&gt;blk -->
<g id="edge3" class="edge">
<title>stem&#45;&gt;blk</title>
<path fill="none" stroke="#000000" d="M68,-276.8445C68,-270.2448 68,-262.5902 68,-255.2061"/>
<polygon fill="#000000" stroke="#000000" points="71.5001,-255.0855 68,-245.0855 64.5001,-255.0855 71.5001,-255.0855"/>
</g>
<!-- pool -->
<g id="node5" class="node">
<title>pool</title>
<path fill="#ffffff" stroke="#000000" d="M121.5,-172C121.5,-172 14.5,-172 14.5,-172 8.5,-172 2.5,-166 2.5,-160 2.5,-160 2.5,-148 2.5,-148 2.5,-142 8.5,-136 14.5,-136 14.5,-136 121.5,-136 121.5,-136 127.5,-136 133.5,-142 133.5,-148 133.5,-148 133.5,-160 133.5,-160 133.5,-166 127.5,-172 121.5,-172"/>
<text text-anchor="middle" x="68" y="-157" font-family="Helvetica,sans-Serif" font-size="10.00" fill="#000000">Masked Mean + Max Pool</text>
<text text-anchor="middle" x="68" y="-146" font-family="Helvetica,sans-Serif" font-size="10.00" fill="#000000">over length (concat)</text>
</g>
<!-- blk&#45;&gt;pool -->
<g id="edge4" class="edge">
<title>blk&#45;&gt;pool</title>
<path fill="none" stroke="#000000" d="M68,-203.729C68,-197.0704 68,-189.5775 68,-182.4673"/>
<polygon fill="#000000" stroke="#000000" points="71.5001,-182.4654 68,-172.4655 64.5001,-182.4655 71.5001,-182.4654"/>
</g>
<!-- head -->
<g id="node6" class="node">
<title>head</title>
<path fill="#ffffff" stroke="#000000" d="M100.5,-104C100.5,-104 35.5,-104 35.5,-104 29.5,-104 23.5,-98 23.5,-92 23.5,-92 23.5,-80 23.5,-80 23.5,-74 29.5,-68 35.5,-68 35.5,-68 100.5,-68 100.5,-68 106.5,-68 112.5,-74 112.5,-80 112.5,-80 112.5,-92 112.5,-92 112.5,-98 106.5,-104 100.5,-104"/>
<text text-anchor="middle" x="68" y="-89" font-family="Helvetica,sans-Serif" font-size="10.00" fill="#000000">MLP head</text>
<text text-anchor="middle" x="68" y="-78" font-family="Helvetica,sans-Serif" font-size="10.00" fill="#000000">128 &#45;&gt; 128 &#45;&gt; 10</text>
</g>
<!-- pool&#45;&gt;head -->
<g id="edge5" class="edge">
<title>pool&#45;&gt;head</title>
<path fill="none" stroke="#000000" d="M68,-135.7772C68,-129.2221 68,-121.6616 68,-114.4444"/>
<polygon fill="#000000" stroke="#000000" points="71.5001,-114.273 68,-104.2731 64.5001,-114.2731 71.5001,-114.273"/>
</g>
<!-- out -->
<g id="node7" class="node">
<title>out</title>
<path fill="#eef6ff" stroke="#000000" d="M83,-36C83,-36 53,-36 53,-36 47,-36 41,-30 41,-24 41,-24 41,-12 41,-12 41,-6 47,0 53,0 53,0 83,0 83,0 89,0 95,-6 95,-12 95,-12 95,-24 95,-24 95,-30 89,-36 83,-36"/>
<text text-anchor="middle" x="68" y="-21" font-family="Helvetica,sans-Serif" font-size="10.00" fill="#000000">logits</text>
<text text-anchor="middle" x="68" y="-10" font-family="Helvetica,sans-Serif" font-size="10.00" fill="#000000">(B, 10)</text>
</g>
<!-- head&#45;&gt;out -->
<g id="edge6" class="edge">
<title>head&#45;&gt;out</title>
<path fill="none" stroke="#000000" d="M68,-67.7772C68,-61.2221 68,-53.6616 68,-46.4444"/>
<polygon fill="#000000" stroke="#000000" points="71.5001,-46.273 68,-36.2731 64.5001,-46.2731 71.5001,-46.273"/>
</g>
</g>
</svg>
