<?xml version="1.0" encoding="UTF-8" standalone="no"?>
<!DOCTYPE svg PUBLIC "-//W3C//DTD SVG 1.1//EN"
 "http://www.w3.org/Graphics/SVG/1.1/DTD/svg11.dtd">
<!-- Generated by graphviz version 2.40.1 (0)
 -->
<!-- Title: capiti.block Pages: 1 -->
<svg width="232pt" height="732pt"
 viewBox="0.00 0.00 231.50 732.00" xmlns="http://www.w3.org/2000/svg" xmlns:xlink="http://www.w3.org/1999/xlink">
<g id="graph0" class="graph" transform="scale(1 1) rotate(0) translate(4 728)">
<title>capiti.block</title>
<polygon fill="#ffffff" stroke="transparent" points="-4,4 -4,-728 227.5,-728 227.5,4 -4,4"/>
<!-- 0 -->
<g id="node1" class="node">
<title>0</title>
<polygon fill="#ffffe0" stroke="transparent" points="140.5,-724 18.5,-724 18.5,-692 140.5,-692 140.5,-724"/>
<polygon fill="none" stroke="#000000" points="18.5,-692 18.5,-724 80.5,-724 80.5,-692 18.5,-692"/>
<text text-anchor="start" x="23.5" y="-711" font-family="Linux libertine" font-size="10.00" fill="#000000">input&#45;tensor</text>
<text text-anchor="start" x="33" y="-700" font-family="Linux libertine" font-size="10.00" fill="#000000">depth:0</text>
<polygon fill="none" stroke="#000000" points="80.5,-692 80.5,-724 140.5,-724 140.5,-692 80.5,-692"/>
<text text-anchor="start" x="85.5" y="-705.5" font-family="Linux libertine" font-size="10.00" fill="#000000">(1, 64, 800)</text>
</g>
<!-- 1 -->
<g id="node2" class="node">
<title>1</title>
<polygon fill="#c1ffc1" stroke="transparent" points="211,-656 60,-656 60,-614 211,-614 211,-656"/>
<polygon fill="none" stroke="#000000" points="60.5,-614 60.5,-656 104.5,-656 104.5,-614 60.5,-614"/>
<text text-anchor="start" x="65.5" y="-638" font-family="Linux libertine" font-size="10.00" fill="#000000">Conv1d</text>
<text text-anchor="start" x="66" y="-627" font-family="Linux libertine" font-size="10.00" fill="#000000">depth:1</text>
<polygon fill="none" stroke="#000000" points="104.5,-635 104.5,-656 148.5,-656 148.5,-635 104.5,-635"/>
<text text-anchor="start" x="114" y="-643" font-family="Linux libertine" font-size="10.00" fill="#000000">input:</text>
<polygon fill="none" stroke="#000000" points="148.5,-635 148.5,-656 211.5,-656 211.5,-635 148.5,-635"/>
<text text-anchor="start" x="153.5" y="-643" font-family="Linux libertine" font-size="10.00" fill="#000000">(1, 64, 800) </text>
<polygon fill="none" stroke="#000000" points="104.5,-614 104.5,-635 148.5,-635 148.5,-614 104.5,-614"/>
<text text-anchor="start" x="109.5" y="-622" font-family="Linux libertine" font-size="10.00" fill="#000000">output: </text>
<polygon fill="none" stroke="#000000" points="148.5,-614 148.5,-635 211.5,-635 211.5,-614 148.5,-614"/>
<text text-anchor="start" x="153.5" y="-622" font-family="Linux libertine" font-size="10.00" fill="#000000">(1, 64, 800) </text>
</g>
<!-- 0&#45;&gt;1 -->
<g id="edge1" class="edge">
<title>0&#45;&gt;1</title>
<path fill="none" stroke="#000000" d="M91.9282,-691.7989C98.1588,-683.6769 105.8977,-673.5887 113.1171,-664.1778"/>
<polygon fill="#000000" stroke="#000000" points="115.967,-666.213 119.2766,-656.1483 110.413,-661.9523 115.967,-666.213"/>
</g>
<!-- 7 -->
<g id="node8" class="node">
<title>7</title>
<polygon fill="#f0f8ff" stroke="transparent" points="167,-188 0,-188 0,-146 167,-146 167,-188"/>
<polygon fill="none" stroke="#000000" points=".5,-146 .5,-188 43.5,-188 43.5,-146 .5,-146"/>
<text text-anchor="start" x="14" y="-170" font-family="Linux libertine" font-size="10.00" fill="#000000">add</text>
<text text-anchor="start" x="5.5" y="-159" font-family="Linux libertine" font-size="10.00" fill="#000000">depth:1</text>
<polygon fill="none" stroke="#000000" points="43.5,-167 43.5,-188 87.5,-188 87.5,-167 43.5,-167"/>
<text text-anchor="start" x="53" y="-175" font-family="Linux libertine" font-size="10.00" fill="#000000">input:</text>
<polygon fill="none" stroke="#000000" points="87.5,-167 87.5,-188 167.5,-188 167.5,-167 87.5,-167"/>
<text text-anchor="start" x="92.5" y="-175" font-family="Linux libertine" font-size="10.00" fill="#000000">2 x (1, 64, 800) </text>
<polygon fill="none" stroke="#000000" points="43.5,-146 43.5,-167 87.5,-167 87.5,-146 43.5,-146"/>
<text text-anchor="start" x="48.5" y="-154" font-family="Linux libertine" font-size="10.00" fill="#000000">output: </text>
<polygon fill="none" stroke="#000000" points="87.5,-146 87.5,-167 167.5,-167 167.5,-146 87.5,-146"/>
<text text-anchor="start" x="101" y="-154" font-family="Linux libertine" font-size="10.00" fill="#000000">(1, 64, 800) </text>
</g>
<!-- 0&#45;&gt;7 -->
<g id="edge2" class="edge">
<title>0&#45;&gt;7</title>
<path fill="none" stroke="#000000" d="M68.8577,-691.7196C62.7432,-681.7493 55.3405,-668.5357 50.5,-656 34.2283,-613.8606 27.5,-602.1718 27.5,-557 27.5,-557 27.5,-557 27.5,-323 27.5,-278.197 29.77,-265.5622 46.5,-224 50.2929,-214.5775 55.7193,-205.0459 61.2516,-196.5443"/>
<polygon fill="#000000" stroke="#000000" points="64.2614,-198.3425 66.9912,-188.1054 58.4732,-194.4058 64.2614,-198.3425"/>
</g>
<!-- 2 -->
<g id="node3" class="node">
<title>2</title>
<polygon fill="#c1ffc1" stroke="transparent" points="223.5,-578 55.5,-578 55.5,-536 223.5,-536 223.5,-578"/>
<polygon fill="none" stroke="#000000" points="55.5,-536 55.5,-578 116.5,-578 116.5,-536 55.5,-536"/>
<text text-anchor="start" x="60.5" y="-560" font-family="Linux libertine" font-size="10.00" fill="#000000">GroupNorm</text>
<text text-anchor="start" x="69.5" y="-549" font-family="Linux libertine" font-size="10.00" fill="#000000">depth:1</text>
<polygon fill="none" stroke="#000000" points="116.5,-557 116.5,-578 160.5,-578 160.5,-557 116.5,-557"/>
<text text-anchor="start" x="126" y="-565" font-family="Linux libertine" font-size="10.00" fill="#000000">input:</text>
<polygon fill="none" stroke="#000000" points="160.5,-557 160.5,-578 223.5,-578 223.5,-557 160.5,-557"/>
<text text-anchor="start" x="165.5" y="-565" font-family="Linux libertine" font-size="10.00" fill="#000000">(1, 64, 800) </text>
<polygon fill="none" stroke="#000000" points="116.5,-536 116.5,-557 160.5,-557 160.5,-536 116.5,-536"/>
<text text-anchor="start" x="121.5" y="-544" font-family="Linux libertine" font-size="10.00" fill="#000000">output: </text>
<polygon fill="none" stroke="#000000" points="160.5,-536 160.5,-557 223.5,-557 223.5,-536 160.5,-536"/>
<text text-anchor="start" x="165.5" y="-544" font-family="Linux libertine" font-size="10.00" fill="#000000">(1, 64, 800) </text>
</g>
<!-- 1&#45;&gt;2 -->
<g id="edge3" class="edge">
<title>1&#45;&gt;2</title>
<path fill="none" stroke="#000000" d="M136.593,-613.6862C136.9976,-605.7975 137.4649,-596.684 137.905,-588.1029"/>
<polygon fill="#000000" stroke="#000000" points="141.4053,-588.1842 138.4222,-578.018 134.4145,-587.8256 141.4053,-588.1842"/>
</g>
<!-- 3 -->
<g id="node4" class="node">
<title>3</title>
<polygon fill="#f0f8ff" stroke="transparent" points="214.5,-500 64.5,-500 64.5,-458 214.5,-458 214.5,-500"/>
<polygon fill="none" stroke="#000000" points="64.5,-458 64.5,-500 107.5,-500 107.5,-458 64.5,-458"/>
<text text-anchor="start" x="76.5" y="-482" font-family="Linux libertine" font-size="10.00" fill="#000000">gelu</text>
<text text-anchor="start" x="69.5" y="-471" font-family="Linux libertine" font-size="10.00" fill="#000000">depth:1</text>
<polygon fill="none" stroke="#000000" points="107.5,-479 107.5,-500 151.5,-500 151.5,-479 107.5,-479"/>
<text text-anchor="start" x="117" y="-487" font-family="Linux libertine" font-size="10.00" fill="#000000">input:</text>
<polygon fill="none" stroke="#000000" points="151.5,-479 151.5,-500 214.5,-500 214.5,-479 151.5,-479"/>
<text text-anchor="start" x="156.5" y="-487" font-family="Linux libertine" font-size="10.00" fill="#000000">(1, 64, 800) </text>
<polygon fill="none" stroke="#000000" points="107.5,-458 107.5,-479 151.5,-479 151.5,-458 107.5,-458"/>
<text text-anchor="start" x="112.5" y="-466" font-family="Linux libertine" font-size="10.00" fill="#000000">output: </text>
<polygon fill="none" stroke="#000000" points="151.5,-458 151.5,-479 214.5,-479 214.5,-458 151.5,-458"/>
<text text-anchor="start" x="156.5" y="-466" font-family="Linux libertine" font-size="10.00" fill="#000000">(1, 64, 800) </text>
</g>
<!-- 2&#45;&gt;3 -->
<g id="edge4" class="edge">
<title>2&#45;&gt;3</title>
<path fill="none" stroke="#000000" d="M139.5,-535.6862C139.5,-527.7975 139.5,-518.684 139.5,-510.1029"/>
<polygon fill="#000000" stroke="#000000" points="143.0001,-510.018 139.5,-500.018 136.0001,-510.018 143.0001,-510.018"/>
</g>
<!-- 4 -->
<g id="node5" class="node">
<title>4</title>
<polygon fill="#c1ffc1" stroke="transparent" points="215.5,-422 63.5,-422 63.5,-380 215.5,-380 215.5,-422"/>
<polygon fill="none" stroke="#000000" points="63.5,-380 63.5,-422 108.5,-422 108.5,-380 63.5,-380"/>
<text text-anchor="start" x="68.5" y="-404" font-family="Linux libertine" font-size="10.00" fill="#000000">Dropout</text>
<text text-anchor="start" x="69.5" y="-393" font-family="Linux libertine" font-size="10.00" fill="#000000">depth:1</text>
<polygon fill="none" stroke="#000000" points="108.5,-401 108.5,-422 152.5,-422 152.5,-401 108.5,-401"/>
<text text-anchor="start" x="118" y="-409" font-family="Linux libertine" font-size="10.00" fill="#000000">input:</text>
<polygon fill="none" stroke="#000000" points="152.5,-401 152.5,-422 215.5,-422 215.5,-401 152.5,-401"/>
<text text-anchor="start" x="157.5" y="-409" font-family="Linux libertine" font-size="10.00" fill="#000000">(1, 64, 800) </text>
<polygon fill="none" stroke="#000000" points="108.5,-380 108.5,-401 152.5,-401 152.5,-380 108.5,-380"/>
<text text-anchor="start" x="113.5" y="-388" font-family="Linux libertine" font-size="10.00" fill="#000000">output: </text>
<polygon fill="none" stroke="#000000" points="152.5,-380 152.5,-401 215.5,-401 215.5,-380 152.5,-380"/>
<text text-anchor="start" x="157.5" y="-388" font-family="Linux libertine" font-size="10.00" fill="#000000">(1, 64, 800) </text>
</g>
<!-- 3&#45;&gt;4 -->
<g id="edge5" class="edge">
<title>3&#45;&gt;4</title>
<path fill="none" stroke="#000000" d="M139.5,-457.6862C139.5,-449.7975 139.5,-440.684 139.5,-432.1029"/>
<polygon fill="#000000" stroke="#000000" points="143.0001,-432.018 139.5,-422.018 136.0001,-432.018 143.0001,-432.018"/>
</g>
<!-- 5 -->
<g id="node6" class="node">
<title>5</title>
<polygon fill="#c1ffc1" stroke="transparent" points="215,-344 64,-344 64,-302 215,-302 215,-344"/>
<polygon fill="none" stroke="#000000" points="64.5,-302 64.5,-344 108.5,-344 108.5,-302 64.5,-302"/>
<text text-anchor="start" x="69.5" y="-326" font-family="Linux libertine" font-size="10.00" fill="#000000">Conv1d</text>
<text text-anchor="start" x="70" y="-315" font-family="Linux libertine" font-size="10.00" fill="#000000">depth:1</text>
<polygon fill="none" stroke="#000000" points="108.5,-323 108.5,-344 152.5,-344 152.5,-323 108.5,-323"/>
<text text-anchor="start" x="118" y="-331" font-family="Linux libertine" font-size="10.00" fill="#000000">input:</text>
<polygon fill="none" stroke="#000000" points="152.5,-323 152.5,-344 215.5,-344 215.5,-323 152.5,-323"/>
<text text-anchor="start" x="157.5" y="-331" font-family="Linux libertine" font-size="10.00" fill="#000000">(1, 64, 800) </text>
<polygon fill="none" stroke="#000000" points="108.5,-302 108.5,-323 152.5,-323 152.5,-302 108.5,-302"/>
<text text-anchor="start" x="113.5" y="-310" font-family="Linux libertine" font-size="10.00" fill="#000000">output: </text>
<polygon fill="none" stroke="#000000" points="152.5,-302 152.5,-323 215.5,-323 215.5,-302 152.5,-302"/>
<text text-anchor="start" x="157.5" y="-310" font-family="Linux libertine" font-size="10.00" fill="#000000">(1, 64, 800) </text>
</g>
<!-- 4&#45;&gt;5 -->
<g id="edge6" class="edge">
<title>4&#45;&gt;5</title>
<path fill="none" stroke="#000000" d="M139.5,-379.6862C139.5,-371.7975 139.5,-362.684 139.5,-354.1029"/>
<polygon fill="#000000" stroke="#000000" points="143.0001,-354.018 139.5,-344.018 136.0001,-354.018 143.0001,-354.018"/>
</g>
<!-- 6 -->
<g id="node7" class="node">
<title>6</title>
<polygon fill="#c1ffc1" stroke="transparent" points="223.5,-266 55.5,-266 55.5,-224 223.5,-224 223.5,-266"/>
<polygon fill="none" stroke="#000000" points="55.5,-224 55.5,-266 116.5,-266 116.5,-224 55.5,-224"/>
<text text-anchor="start" x="60.5" y="-248" font-family="Linux libertine" font-size="10.00" fill="#000000">GroupNorm</text>
<text text-anchor="start" x="69.5" y="-237" font-family="Linux libertine" font-size="10.00" fill="#000000">depth:1</text>
<polygon fill="none" stroke="#000000" points="116.5,-245 116.5,-266 160.5,-266 160.5,-245 116.5,-245"/>
<text text-anchor="start" x="126" y="-253" font-family="Linux libertine" font-size="10.00" fill="#000000">input:</text>
<polygon fill="none" stroke="#000000" points="160.5,-245 160.5,-266 223.5,-266 223.5,-245 160.5,-245"/>
<text text-anchor="start" x="165.5" y="-253" font-family="Linux libertine" font-size="10.00" fill="#000000">(1, 64, 800) </text>
<polygon fill="none" stroke="#000000" points="116.5,-224 116.5,-245 160.5,-245 160.5,-224 116.5,-224"/>
<text text-anchor="start" x="121.5" y="-232" font-family="Linux libertine" font-size="10.00" fill="#000000">output: </text>
<polygon fill="none" stroke="#000000" points="160.5,-224 160.5,-245 223.5,-245 223.5,-224 160.5,-224"/>
<text text-anchor="start" x="165.5" y="-232" font-family="Linux libertine" font-size="10.00" fill="#000000">(1, 64, 800) </text>
</g>
<!-- 5&#45;&gt;6 -->
<g id="edge7" class="edge">
<title>5&#45;&gt;6</title>
<path fill="none" stroke="#000000" d="M139.5,-301.6862C139.5,-293.7975 139.5,-284.684 139.5,-276.1029"/>
<polygon fill="#000000" stroke="#000000" points="143.0001,-276.018 139.5,-266.018 136.0001,-276.018 143.0001,-276.018"/>
</g>
<!-- 6&#45;&gt;7 -->
<g id="edge8" class="edge">
<title>6&#45;&gt;7</title>
<path fill="none" stroke="#000000" d="M124.1978,-223.6862C118.1607,-215.2774 111.1245,-205.4769 104.617,-196.413"/>
<polygon fill="#000000" stroke="#000000" points="107.2651,-194.1 98.5899,-188.018 101.5788,-198.1825 107.2651,-194.1"/>
</g>
<!-- 8 -->
<g id="node9" class="node">
<title>8</title>
<polygon fill="#f0f8ff" stroke="transparent" points="158.5,-110 8.5,-110 8.5,-68 158.5,-68 158.5,-110"/>
<polygon fill="none" stroke="#000000" points="8.5,-68 8.5,-110 51.5,-110 51.5,-68 8.5,-68"/>
<text text-anchor="start" x="20.5" y="-92" font-family="Linux libertine" font-size="10.00" fill="#000000">gelu</text>
<text text-anchor="start" x="13.5" y="-81" font-family="Linux libertine" font-size="10.00" fill="#000000">depth:1</text>
<polygon fill="none" stroke="#000000" points="51.5,-89 51.5,-110 95.5,-110 95.5,-89 51.5,-89"/>
<text text-anchor="start" x="61" y="-97" font-family="Linux libertine" font-size="10.00" fill="#000000">input:</text>
<polygon fill="none" stroke="#000000" points="95.5,-89 95.5,-110 158.5,-110 158.5,-89 95.5,-89"/>
<text text-anchor="start" x="100.5" y="-97" font-family="Linux libertine" font-size="10.00" fill="#000000">(1, 64, 800) </text>
<polygon fill="none" stroke="#000000" points="51.5,-68 51.5,-89 95.5,-89 95.5,-68 51.5,-68"/>
<text text-anchor="start" x="56.5" y="-76" font-family="Linux libertine" font-size="10.00" fill="#000000">output: </text>
<polygon fill="none" stroke="#000000" points="95.5,-68 95.5,-89 158.5,-89 158.5,-68 95.5,-68"/>
<text text-anchor="start" x="100.5" y="-76" font-family="Linux libertine" font-size="10.00" fill="#000000">(1, 64, 800) </text>
</g>
<!-- 7&#45;&gt;8 -->
<g id="edge9" class="edge">
<title>7&#45;&gt;8</title>
<path fill="none" stroke="#000000" d="M83.5,-145.6862C83.5,-137.7975 83.5,-128.684 83.5,-120.1029"/>
<polygon fill="#000000" stroke="#000000" points="87.0001,-120.018 83.5,-110.018 80.0001,-120.018 87.0001,-120.018"/>
</g>
<!-- 9 -->
<g id="node10" class="node">
<title>9</title>
<polygon fill="#ffffe0" stroke="transparent" points="147.5,-32 19.5,-32 19.5,0 147.5,0 147.5,-32"/>
<polygon fill="none" stroke="#000000" points="19.5,0 19.5,-32 87.5,-32 87.5,0 19.5,0"/>
<text text-anchor="start" x="24.5" y="-19" font-family="Linux libertine" font-size="10.00" fill="#000000">output&#45;tensor</text>
<text text-anchor="start" x="37" y="-8" font-family="Linux libertine" font-size="10.00" fill="#000000">depth:0</text>
<polygon fill="none" stroke="#000000" points="87.5,0 87.5,-32 147.5,-32 147.5,0 87.5,0"/>
<text text-anchor="start" x="92.5" y="-13.5" font-family="Linux libertine" font-size="10.00" fill="#000000">(1, 64, 800)</text>
</g>
<!-- 8&#45;&gt;9 -->
<g id="edge10" class="edge">
<title>8&#45;&gt;9</title>
<path fill="none" stroke="#000000" d="M83.5,-67.8854C83.5,-59.9505 83.5,-50.8282 83.5,-42.4674"/>
<polygon fill="#000000" stroke="#000000" points="87.0001,-42.4309 83.5,-32.431 80.0001,-42.431 87.0001,-42.4309"/>
</g>
</g>
</svg>
