<?xml version="1.0" encoding="UTF-8" standalone="no"?>
<!DOCTYPE svg PUBLIC "-//W3C//DTD SVG 1.1//EN"
 "http://www.w3.org/Graphics/SVG/1.1/DTD/svg11.dtd">
<!-- Generated by graphviz version 2.40.1 (0)
 -->
<!-- Title: capiti.overview Pages: 1 -->
<svg width="329pt" height="864pt"
 viewBox="0.00 0.00 328.97 864.00" xmlns="http://www.w3.org/2000/svg" xmlns:xlink="http://www.w3.org/1999/xlink">
<g id="graph0" class="graph" transform="scale(.8276 .8276) rotate(0) translate(4 1040)">
<title>capiti.overview</title>
<polygon fill="#ffffff" stroke="transparent" points="-4,4 -4,-1040 393.5,-1040 393.5,4 -4,4"/>
<!-- 0 -->
<g id="node1" class="node">
<title>0</title>
<polygon fill="#ffffe0" stroke="transparent" points="268.5,-1036 162.5,-1036 162.5,-1004 268.5,-1004 268.5,-1036"/>
<polygon fill="none" stroke="#000000" points="162.5,-1004 162.5,-1036 224.5,-1036 224.5,-1004 162.5,-1004"/>
<text text-anchor="start" x="167.5" y="-1023" font-family="Linux libertine" font-size="10.00" fill="#000000">input&#45;tensor</text>
<text text-anchor="start" x="177" y="-1012" font-family="Linux libertine" font-size="10.00" fill="#000000">depth:0</text>
<polygon fill="none" stroke="#000000" points="224.5,-1004 224.5,-1036 268.5,-1036 268.5,-1004 224.5,-1004"/>
<text text-anchor="start" x="229.5" y="-1017.5" font-family="Linux libertine" font-size="10.00" fill="#000000">(1, 800)</text>
</g>
<!-- 1 -->
<g id="node2" class="node">
<title>1</title>
<polygon fill="#f0f8ff" stroke="transparent" points="375.5,-968 241.5,-968 241.5,-926 375.5,-926 375.5,-968"/>
<polygon fill="none" stroke="#000000" points="241.5,-926 241.5,-968 284.5,-968 284.5,-926 241.5,-926"/>
<text text-anchor="start" x="257.5" y="-950" font-family="Linux libertine" font-size="10.00" fill="#000000">ne</text>
<text text-anchor="start" x="246.5" y="-939" font-family="Linux libertine" font-size="10.00" fill="#000000">depth:1</text>
<polygon fill="none" stroke="#000000" points="284.5,-947 284.5,-968 328.5,-968 328.5,-947 284.5,-947"/>
<text text-anchor="start" x="294" y="-955" font-family="Linux libertine" font-size="10.00" fill="#000000">input:</text>
<polygon fill="none" stroke="#000000" points="328.5,-947 328.5,-968 375.5,-968 375.5,-947 328.5,-947"/>
<text text-anchor="start" x="333.5" y="-955" font-family="Linux libertine" font-size="10.00" fill="#000000">(1, 800) </text>
<polygon fill="none" stroke="#000000" points="284.5,-926 284.5,-947 328.5,-947 328.5,-926 284.5,-926"/>
<text text-anchor="start" x="289.5" y="-934" font-family="Linux libertine" font-size="10.00" fill="#000000">output: </text>
<polygon fill="none" stroke="#000000" points="328.5,-926 328.5,-947 375.5,-947 375.5,-926 328.5,-926"/>
<text text-anchor="start" x="333.5" y="-934" font-family="Linux libertine" font-size="10.00" fill="#000000">(1, 800) </text>
</g>
<!-- 0&#45;&gt;1 -->
<g id="edge1" class="edge">
<title>0&#45;&gt;1</title>
<path fill="none" stroke="#000000" d="M236.1397,-1003.7989C247.114,-995.1847 260.9061,-984.3587 273.4979,-974.4747"/>
<polygon fill="#000000" stroke="#000000" points="275.8526,-977.076 281.5576,-968.1483 271.5304,-971.5697 275.8526,-977.076"/>
</g>
<!-- 3 -->
<g id="node4" class="node">
<title>3</title>
<polygon fill="#c1ffc1" stroke="transparent" points="214.5,-968 48.5,-968 48.5,-926 214.5,-926 214.5,-968"/>
<polygon fill="none" stroke="#000000" points="48.5,-926 48.5,-968 107.5,-968 107.5,-926 48.5,-926"/>
<text text-anchor="start" x="53.5" y="-950" font-family="Linux libertine" font-size="10.00" fill="#000000">Embedding</text>
<text text-anchor="start" x="61.5" y="-939" font-family="Linux libertine" font-size="10.00" fill="#000000">depth:1</text>
<polygon fill="none" stroke="#000000" points="107.5,-947 107.5,-968 151.5,-968 151.5,-947 107.5,-947"/>
<text text-anchor="start" x="117" y="-955" font-family="Linux libertine" font-size="10.00" fill="#000000">input:</text>
<polygon fill="none" stroke="#000000" points="151.5,-947 151.5,-968 214.5,-968 214.5,-947 151.5,-947"/>
<text text-anchor="start" x="164.5" y="-955" font-family="Linux libertine" font-size="10.00" fill="#000000">(1, 800) </text>
<polygon fill="none" stroke="#000000" points="107.5,-926 107.5,-947 151.5,-947 151.5,-926 107.5,-926"/>
<text text-anchor="start" x="112.5" y="-934" font-family="Linux libertine" font-size="10.00" fill="#000000">output: </text>
<polygon fill="none" stroke="#000000" points="151.5,-926 151.5,-947 214.5,-947 214.5,-926 151.5,-926"/>
<text text-anchor="start" x="156.5" y="-934" font-family="Linux libertine" font-size="10.00" fill="#000000">(1, 800, 32) </text>
</g>
<!-- 0&#45;&gt;3 -->
<g id="edge2" class="edge">
<title>0&#45;&gt;3</title>
<path fill="none" stroke="#000000" d="M196.8577,-1003.7989C187.0398,-995.2667 174.7251,-984.5647 163.44,-974.7574"/>
<polygon fill="#000000" stroke="#000000" points="165.6789,-972.0661 155.8351,-968.1483 161.0872,-977.3497 165.6789,-972.0661"/>
</g>
<!-- 2 -->
<g id="node3" class="node">
<title>2</title>
<polygon fill="#f0f8ff" stroke="transparent" points="375.5,-890 241.5,-890 241.5,-848 375.5,-848 375.5,-890"/>
<polygon fill="none" stroke="#000000" points="241.5,-848 241.5,-890 284.5,-890 284.5,-848 241.5,-848"/>
<text text-anchor="start" x="253.5" y="-872" font-family="Linux libertine" font-size="10.00" fill="#000000">float</text>
<text text-anchor="start" x="246.5" y="-861" font-family="Linux libertine" font-size="10.00" fill="#000000">depth:1</text>
<polygon fill="none" stroke="#000000" points="284.5,-869 284.5,-890 328.5,-890 328.5,-869 284.5,-869"/>
<text text-anchor="start" x="294" y="-877" font-family="Linux libertine" font-size="10.00" fill="#000000">input:</text>
<polygon fill="none" stroke="#000000" points="328.5,-869 328.5,-890 375.5,-890 375.5,-869 328.5,-869"/>
<text text-anchor="start" x="333.5" y="-877" font-family="Linux libertine" font-size="10.00" fill="#000000">(1, 800) </text>
<polygon fill="none" stroke="#000000" points="284.5,-848 284.5,-869 328.5,-869 328.5,-848 284.5,-848"/>
<text text-anchor="start" x="289.5" y="-856" font-family="Linux libertine" font-size="10.00" fill="#000000">output: </text>
<polygon fill="none" stroke="#000000" points="328.5,-848 328.5,-869 375.5,-869 375.5,-848 328.5,-848"/>
<text text-anchor="start" x="333.5" y="-856" font-family="Linux libertine" font-size="10.00" fill="#000000">(1, 800) </text>
</g>
<!-- 1&#45;&gt;2 -->
<g id="edge3" class="edge">
<title>1&#45;&gt;2</title>
<path fill="none" stroke="#000000" d="M308.5,-925.6862C308.5,-917.7975 308.5,-908.684 308.5,-900.1029"/>
<polygon fill="#000000" stroke="#000000" points="312.0001,-900.018 308.5,-890.018 305.0001,-900.018 312.0001,-900.018"/>
</g>
<!-- 11 -->
<g id="node12" class="node">
<title>11</title>
<polygon fill="#f0f8ff" stroke="transparent" points="389.5,-422 229.5,-422 229.5,-380 389.5,-380 389.5,-422"/>
<polygon fill="none" stroke="#000000" points="229.5,-380 229.5,-422 287.5,-422 287.5,-380 229.5,-380"/>
<text text-anchor="start" x="234.5" y="-404" font-family="Linux libertine" font-size="10.00" fill="#000000">unsqueeze</text>
<text text-anchor="start" x="242" y="-393" font-family="Linux libertine" font-size="10.00" fill="#000000">depth:1</text>
<polygon fill="none" stroke="#000000" points="287.5,-401 287.5,-422 331.5,-422 331.5,-401 287.5,-401"/>
<text text-anchor="start" x="297" y="-409" font-family="Linux libertine" font-size="10.00" fill="#000000">input:</text>
<polygon fill="none" stroke="#000000" points="331.5,-401 331.5,-422 389.5,-422 389.5,-401 331.5,-401"/>
<text text-anchor="start" x="342" y="-409" font-family="Linux libertine" font-size="10.00" fill="#000000">(1, 800) </text>
<polygon fill="none" stroke="#000000" points="287.5,-380 287.5,-401 331.5,-401 331.5,-380 287.5,-380"/>
<text text-anchor="start" x="292.5" y="-388" font-family="Linux libertine" font-size="10.00" fill="#000000">output: </text>
<polygon fill="none" stroke="#000000" points="331.5,-380 331.5,-401 389.5,-401 389.5,-380 331.5,-380"/>
<text text-anchor="start" x="336.5" y="-388" font-family="Linux libertine" font-size="10.00" fill="#000000">(1, 1, 800) </text>
</g>
<!-- 2&#45;&gt;11 -->
<g id="edge4" class="edge">
<title>2&#45;&gt;11</title>
<path fill="none" stroke="#000000" d="M308.5,-847.8047C308.5,-817.7966 308.5,-761.2083 308.5,-713 308.5,-713 308.5,-713 308.5,-557 308.5,-513.8753 308.8869,-464.0461 309.1793,-432.5356"/>
<polygon fill="#000000" stroke="#000000" points="312.6823,-432.228 309.2781,-422.195 305.6827,-432.1611 312.6823,-432.228"/>
</g>
<!-- 4 -->
<g id="node5" class="node">
<title>4</title>
<polygon fill="#f0f8ff" stroke="transparent" points="193.5,-890 33.5,-890 33.5,-848 193.5,-848 193.5,-890"/>
<polygon fill="none" stroke="#000000" points="33.5,-848 33.5,-890 86.5,-890 86.5,-848 33.5,-848"/>
<text text-anchor="start" x="38.5" y="-872" font-family="Linux libertine" font-size="10.00" fill="#000000">transpose</text>
<text text-anchor="start" x="43.5" y="-861" font-family="Linux libertine" font-size="10.00" fill="#000000">depth:1</text>
<polygon fill="none" stroke="#000000" points="86.5,-869 86.5,-890 130.5,-890 130.5,-869 86.5,-869"/>
<text text-anchor="start" x="96" y="-877" font-family="Linux libertine" font-size="10.00" fill="#000000">input:</text>
<polygon fill="none" stroke="#000000" points="130.5,-869 130.5,-890 193.5,-890 193.5,-869 130.5,-869"/>
<text text-anchor="start" x="135.5" y="-877" font-family="Linux libertine" font-size="10.00" fill="#000000">(1, 800, 32) </text>
<polygon fill="none" stroke="#000000" points="86.5,-848 86.5,-869 130.5,-869 130.5,-848 86.5,-848"/>
<text text-anchor="start" x="91.5" y="-856" font-family="Linux libertine" font-size="10.00" fill="#000000">output: </text>
<polygon fill="none" stroke="#000000" points="130.5,-848 130.5,-869 193.5,-869 193.5,-848 130.5,-848"/>
<text text-anchor="start" x="135.5" y="-856" font-family="Linux libertine" font-size="10.00" fill="#000000">(1, 32, 800) </text>
</g>
<!-- 3&#45;&gt;4 -->
<g id="edge5" class="edge">
<title>3&#45;&gt;4</title>
<path fill="none" stroke="#000000" d="M126.5814,-925.6862C124.741,-917.7108 122.6116,-908.4836 120.6124,-899.8202"/>
<polygon fill="#000000" stroke="#000000" points="124.0094,-898.9749 118.3503,-890.018 117.1886,-900.549 124.0094,-898.9749"/>
</g>
<!-- 5 -->
<g id="node6" class="node">
<title>5</title>
<polygon fill="#c1ffc1" stroke="transparent" points="185,-812 34,-812 34,-770 185,-770 185,-812"/>
<polygon fill="none" stroke="#000000" points="34.5,-770 34.5,-812 78.5,-812 78.5,-770 34.5,-770"/>
<text text-anchor="start" x="39.5" y="-794" font-family="Linux libertine" font-size="10.00" fill="#000000">Conv1d</text>
<text text-anchor="start" x="40" y="-783" font-family="Linux libertine" font-size="10.00" fill="#000000">depth:1</text>
<polygon fill="none" stroke="#000000" points="78.5,-791 78.5,-812 122.5,-812 122.5,-791 78.5,-791"/>
<text text-anchor="start" x="88" y="-799" font-family="Linux libertine" font-size="10.00" fill="#000000">input:</text>
<polygon fill="none" stroke="#000000" points="122.5,-791 122.5,-812 185.5,-812 185.5,-791 122.5,-791"/>
<text text-anchor="start" x="127.5" y="-799" font-family="Linux libertine" font-size="10.00" fill="#000000">(1, 32, 800) </text>
<polygon fill="none" stroke="#000000" points="78.5,-770 78.5,-791 122.5,-791 122.5,-770 78.5,-770"/>
<text text-anchor="start" x="83.5" y="-778" font-family="Linux libertine" font-size="10.00" fill="#000000">output: </text>
<polygon fill="none" stroke="#000000" points="122.5,-770 122.5,-791 185.5,-791 185.5,-770 122.5,-770"/>
<text text-anchor="start" x="127.5" y="-778" font-family="Linux libertine" font-size="10.00" fill="#000000">(1, 64, 800) </text>
</g>
<!-- 4&#45;&gt;5 -->
<g id="edge6" class="edge">
<title>4&#45;&gt;5</title>
<path fill="none" stroke="#000000" d="M112.407,-847.6862C112.0024,-839.7975 111.5351,-830.684 111.095,-822.1029"/>
<polygon fill="#000000" stroke="#000000" points="114.5855,-821.8256 110.5778,-812.018 107.5947,-822.1842 114.5855,-821.8256"/>
</g>
<!-- 6 -->
<g id="node7" class="node">
<title>6</title>
<polygon fill="#c1ffc1" stroke="transparent" points="213,-734 2,-734 2,-692 213,-692 213,-734"/>
<polygon fill="none" stroke="#000000" points="2.5,-692 2.5,-734 106.5,-734 106.5,-692 2.5,-692"/>
<text text-anchor="start" x="7.5" y="-716" font-family="Linux libertine" font-size="10.00" fill="#000000">ResidualDilatedBlock</text>
<text text-anchor="start" x="38" y="-705" font-family="Linux libertine" font-size="10.00" fill="#000000">depth:1</text>
<polygon fill="none" stroke="#000000" points="106.5,-713 106.5,-734 150.5,-734 150.5,-713 106.5,-713"/>
<text text-anchor="start" x="116" y="-721" font-family="Linux libertine" font-size="10.00" fill="#000000">input:</text>
<polygon fill="none" stroke="#000000" points="150.5,-713 150.5,-734 213.5,-734 213.5,-713 150.5,-713"/>
<text text-anchor="start" x="155.5" y="-721" font-family="Linux libertine" font-size="10.00" fill="#000000">(1, 64, 800) </text>
<polygon fill="none" stroke="#000000" points="106.5,-692 106.5,-713 150.5,-713 150.5,-692 106.5,-692"/>
<text text-anchor="start" x="111.5" y="-700" font-family="Linux libertine" font-size="10.00" fill="#000000">output: </text>
<polygon fill="none" stroke="#000000" points="150.5,-692 150.5,-713 213.5,-713 213.5,-692 150.5,-692"/>
<text text-anchor="start" x="155.5" y="-700" font-family="Linux libertine" font-size="10.00" fill="#000000">(1, 64, 800) </text>
</g>
<!-- 5&#45;&gt;6 -->
<g id="edge7" class="edge">
<title>5&#45;&gt;6</title>
<path fill="none" stroke="#000000" d="M108.9535,-769.6862C108.7512,-761.7975 108.5175,-752.684 108.2975,-744.1029"/>
<polygon fill="#000000" stroke="#000000" points="111.7942,-743.925 108.0389,-734.018 104.7965,-744.1045 111.7942,-743.925"/>
</g>
<!-- 7 -->
<g id="node8" class="node">
<title>7</title>
<polygon fill="#c1ffc1" stroke="transparent" points="212,-656 1,-656 1,-614 212,-614 212,-656"/>
<polygon fill="none" stroke="#000000" points="1.5,-614 1.5,-656 105.5,-656 105.5,-614 1.5,-614"/>
<text text-anchor="start" x="6.5" y="-638" font-family="Linux libertine" font-size="10.00" fill="#000000">ResidualDilatedBlock</text>
<text text-anchor="start" x="37" y="-627" font-family="Linux libertine" font-size="10.00" fill="#000000">depth:1</text>
<polygon fill="none" stroke="#000000" points="105.5,-635 105.5,-656 149.5,-656 149.5,-635 105.5,-635"/>
<text text-anchor="start" x="115" y="-643" font-family="Linux libertine" font-size="10.00" fill="#000000">input:</text>
<polygon fill="none" stroke="#000000" points="149.5,-635 149.5,-656 212.5,-656 212.5,-635 149.5,-635"/>
<text text-anchor="start" x="154.5" y="-643" font-family="Linux libertine" font-size="10.00" fill="#000000">(1, 64, 800) </text>
<polygon fill="none" stroke="#000000" points="105.5,-614 105.5,-635 149.5,-635 149.5,-614 105.5,-614"/>
<text text-anchor="start" x="110.5" y="-622" font-family="Linux libertine" font-size="10.00" fill="#000000">output: </text>
<polygon fill="none" stroke="#000000" points="149.5,-614 149.5,-635 212.5,-635 212.5,-614 149.5,-614"/>
<text text-anchor="start" x="154.5" y="-622" font-family="Linux libertine" font-size="10.00" fill="#000000">(1, 64, 800) </text>
</g>
<!-- 6&#45;&gt;7 -->
<g id="edge8" class="edge">
<title>6&#45;&gt;7</title>
<path fill="none" stroke="#000000" d="M107.2267,-691.6862C107.1256,-683.7975 107.0088,-674.684 106.8988,-666.1029"/>
<polygon fill="#000000" stroke="#000000" points="110.3975,-665.9723 106.7695,-656.018 103.398,-666.0621 110.3975,-665.9723"/>
</g>
<!-- 8 -->
<g id="node9" class="node">
<title>8</title>
<polygon fill="#c1ffc1" stroke="transparent" points="211,-578 0,-578 0,-536 211,-536 211,-578"/>
<polygon fill="none" stroke="#000000" points=".5,-536 .5,-578 104.5,-578 104.5,-536 .5,-536"/>
<text text-anchor="start" x="5.5" y="-560" font-family="Linux libertine" font-size="10.00" fill="#000000">ResidualDilatedBlock</text>
<text text-anchor="start" x="36" y="-549" font-family="Linux libertine" font-size="10.00" fill="#000000">depth:1</text>
<polygon fill="none" stroke="#000000" points="104.5,-557 104.5,-578 148.5,-578 148.5,-557 104.5,-557"/>
<text text-anchor="start" x="114" y="-565" font-family="Linux libertine" font-size="10.00" fill="#000000">input:</text>
<polygon fill="none" stroke="#000000" points="148.5,-557 148.5,-578 211.5,-578 211.5,-557 148.5,-557"/>
<text text-anchor="start" x="153.5" y="-565" font-family="Linux libertine" font-size="10.00" fill="#000000">(1, 64, 800) </text>
<polygon fill="none" stroke="#000000" points="104.5,-536 104.5,-557 148.5,-557 148.5,-536 104.5,-536"/>
<text text-anchor="start" x="109.5" y="-544" font-family="Linux libertine" font-size="10.00" fill="#000000">output: </text>
<polygon fill="none" stroke="#000000" points="148.5,-536 148.5,-557 211.5,-557 211.5,-536 148.5,-536"/>
<text text-anchor="start" x="153.5" y="-544" font-family="Linux libertine" font-size="10.00" fill="#000000">(1, 64, 800) </text>
</g>
<!-- 7&#45;&gt;8 -->
<g id="edge9" class="edge">
<title>7&#45;&gt;8</title>
<path fill="none" stroke="#000000" d="M106.2267,-613.6862C106.1256,-605.7975 106.0088,-596.684 105.8988,-588.1029"/>
<polygon fill="#000000" stroke="#000000" points="109.3975,-587.9723 105.7695,-578.018 102.398,-588.0621 109.3975,-587.9723"/>
</g>
<!-- 9 -->
<g id="node10" class="node">
<title>9</title>
<polygon fill="#c1ffc1" stroke="transparent" points="211,-500 0,-500 0,-458 211,-458 211,-500"/>
<polygon fill="none" stroke="#000000" points=".5,-458 .5,-500 104.5,-500 104.5,-458 .5,-458"/>
<text text-anchor="start" x="5.5" y="-482" font-family="Linux libertine" font-size="10.00" fill="#000000">ResidualDilatedBlock</text>
<text text-anchor="start" x="36" y="-471" font-family="Linux libertine" font-size="10.00" fill="#000000">depth:1</text>
<polygon fill="none" stroke="#000000" points="104.5,-479 104.5,-500 148.5,-500 148.5,-479 104.5,-479"/>
<text text-anchor="start" x="114" y="-487" font-family="Linux libertine" font-size="10.00" fill="#000000">input:</text>
<polygon fill="none" stroke="#000000" points="148.5,-479 148.5,-500 211.5,-500 211.5,-479 148.5,-479"/>
<text text-anchor="start" x="153.5" y="-487" font-family="Linux libertine" font-size="10.00" fill="#000000">(1, 64, 800) </text>
<polygon fill="none" stroke="#000000" points="104.5,-458 104.5,-479 148.5,-479 148.5,-458 104.5,-458"/>
<text text-anchor="start" x="109.5" y="-466" font-family="Linux libertine" font-size="10.00" fill="#000000">output: </text>
<polygon fill="none" stroke="#000000" points="148.5,-458 148.5,-479 211.5,-479 211.5,-458 148.5,-458"/>
<text text-anchor="start" x="153.5" y="-466" font-family="Linux libertine" font-size="10.00" fill="#000000">(1, 64, 800) </text>
</g>
<!-- 8&#45;&gt;9 -->
<g id="edge10" class="edge">
<title>8&#45;&gt;9</title>
<path fill="none" stroke="#000000" d="M105.5,-535.6862C105.5,-527.7975 105.5,-518.684 105.5,-510.1029"/>
<polygon fill="#000000" stroke="#000000" points="109.0001,-510.018 105.5,-500.018 102.0001,-510.018 109.0001,-510.018"/>
</g>
<!-- 10 -->
<g id="node11" class="node">
<title>10</title>
<polygon fill="#c1ffc1" stroke="transparent" points="211,-422 0,-422 0,-380 211,-380 211,-422"/>
<polygon fill="none" stroke="#000000" points=".5,-380 .5,-422 104.5,-422 104.5,-380 .5,-380"/>
<text text-anchor="start" x="5.5" y="-404" font-family="Linux libertine" font-size="10.00" fill="#000000">ResidualDilatedBlock</text>
<text text-anchor="start" x="36" y="-393" font-family="Linux libertine" font-size="10.00" fill="#000000">depth:1</text>
<polygon fill="none" stroke="#000000" points="104.5,-401 104.5,-422 148.5,-422 148.5,-401 104.5,-401"/>
<text text-anchor="start" x="114" y="-409" font-family="Linux libertine" font-size="10.00" fill="#000000">input:</text>
<polygon fill="none" stroke="#000000" points="148.5,-401 148.5,-422 211.5,-422 211.5,-401 148.5,-401"/>
<text text-anchor="start" x="153.5" y="-409" font-family="Linux libertine" font-size="10.00" fill="#000000">(1, 64, 800) </text>
<polygon fill="none" stroke="#000000" points="104.5,-380 104.5,-401 148.5,-401 148.5,-380 104.5,-380"/>
<text text-anchor="start" x="109.5" y="-388" font-family="Linux libertine" font-size="10.00" fill="#000000">output: </text>
<polygon fill="none" stroke="#000000" points="148.5,-380 148.5,-401 211.5,-401 211.5,-380 148.5,-380"/>
<text text-anchor="start" x="153.5" y="-388" font-family="Linux libertine" font-size="10.00" fill="#000000">(1, 64, 800) </text>
</g>
<!-- 9&#45;&gt;10 -->
<g id="edge11" class="edge">
<title>9&#45;&gt;10</title>
<path fill="none" stroke="#000000" d="M105.5,-457.6862C105.5,-449.7975 105.5,-440.684 105.5,-432.1029"/>
<polygon fill="#000000" stroke="#000000" points="109.0001,-432.018 105.5,-422.018 102.0001,-432.018 109.0001,-432.018"/>
</g>
<!-- 12 -->
<g id="node13" class="node">
<title>12</title>
<polygon fill="#f0f8ff" stroke="transparent" points="218.5,-344 18.5,-344 18.5,-302 218.5,-302 218.5,-344"/>
<polygon fill="none" stroke="#000000" points="18.5,-302 18.5,-344 61.5,-344 61.5,-302 18.5,-302"/>
<text text-anchor="start" x="32" y="-326" font-family="Linux libertine" font-size="10.00" fill="#000000">mul</text>
<text text-anchor="start" x="23.5" y="-315" font-family="Linux libertine" font-size="10.00" fill="#000000">depth:1</text>
<polygon fill="none" stroke="#000000" points="61.5,-323 61.5,-344 105.5,-344 105.5,-323 61.5,-323"/>
<text text-anchor="start" x="71" y="-331" font-family="Linux libertine" font-size="10.00" fill="#000000">input:</text>
<polygon fill="none" stroke="#000000" points="105.5,-323 105.5,-344 218.5,-344 218.5,-323 105.5,-323"/>
<text text-anchor="start" x="110.5" y="-331" font-family="Linux libertine" font-size="10.00" fill="#000000">(1, 64, 800), (1, 1, 800) </text>
<polygon fill="none" stroke="#000000" points="61.5,-302 61.5,-323 105.5,-323 105.5,-302 61.5,-302"/>
<text text-anchor="start" x="66.5" y="-310" font-family="Linux libertine" font-size="10.00" fill="#000000">output: </text>
<polygon fill="none" stroke="#000000" points="105.5,-302 105.5,-323 218.5,-323 218.5,-302 105.5,-302"/>
<text text-anchor="start" x="135.5" y="-310" font-family="Linux libertine" font-size="10.00" fill="#000000">(1, 64, 800) </text>
</g>
<!-- 10&#45;&gt;12 -->
<g id="edge12" class="edge">
<title>10&#45;&gt;12</title>
<path fill="none" stroke="#000000" d="M109.0523,-379.6862C110.3671,-371.7975 111.886,-362.684 113.3162,-354.1029"/>
<polygon fill="#000000" stroke="#000000" points="116.8053,-354.4574 114.997,-344.018 109.9005,-353.3065 116.8053,-354.4574"/>
</g>
<!-- 11&#45;&gt;12 -->
<g id="edge13" class="edge">
<title>11&#45;&gt;12</title>
<path fill="none" stroke="#000000" d="M258.0643,-379.9948C233.8646,-370.1122 204.8301,-358.2552 179.5254,-347.9214"/>
<polygon fill="#000000" stroke="#000000" points="180.6086,-344.5832 170.0276,-344.0427 177.9621,-351.0636 180.6086,-344.5832"/>
</g>
<!-- 14 -->
<g id="node15" class="node">
<title>14</title>
<polygon fill="#f0f8ff" stroke="transparent" points="382,-344 237,-344 237,-302 382,-302 382,-344"/>
<polygon fill="none" stroke="#000000" points="237.5,-302 237.5,-344 280.5,-344 280.5,-302 237.5,-302"/>
<text text-anchor="start" x="249.5" y="-326" font-family="Linux libertine" font-size="10.00" fill="#000000">sum</text>
<text text-anchor="start" x="242.5" y="-315" font-family="Linux libertine" font-size="10.00" fill="#000000">depth:1</text>
<polygon fill="none" stroke="#000000" points="280.5,-323 280.5,-344 324.5,-344 324.5,-323 280.5,-323"/>
<text text-anchor="start" x="290" y="-331" font-family="Linux libertine" font-size="10.00" fill="#000000">input:</text>
<polygon fill="none" stroke="#000000" points="324.5,-323 324.5,-344 382.5,-344 382.5,-323 324.5,-323"/>
<text text-anchor="start" x="329.5" y="-331" font-family="Linux libertine" font-size="10.00" fill="#000000">(1, 1, 800) </text>
<polygon fill="none" stroke="#000000" points="280.5,-302 280.5,-323 324.5,-323 324.5,-302 280.5,-302"/>
<text text-anchor="start" x="285.5" y="-310" font-family="Linux libertine" font-size="10.00" fill="#000000">output: </text>
<polygon fill="none" stroke="#000000" points="324.5,-302 324.5,-323 382.5,-323 382.5,-302 324.5,-302"/>
<text text-anchor="start" x="340.5" y="-310" font-family="Linux libertine" font-size="10.00" fill="#000000">(1, 1) </text>
</g>
<!-- 11&#45;&gt;14 -->
<g id="edge14" class="edge">
<title>11&#45;&gt;14</title>
<path fill="none" stroke="#000000" d="M309.5,-379.6862C309.5,-371.7975 309.5,-362.684 309.5,-354.1029"/>
<polygon fill="#000000" stroke="#000000" points="313.0001,-354.018 309.5,-344.018 306.0001,-354.018 313.0001,-354.018"/>
</g>
<!-- 13 -->
<g id="node14" class="node">
<title>13</title>
<polygon fill="#f0f8ff" stroke="transparent" points="211.5,-266 61.5,-266 61.5,-224 211.5,-224 211.5,-266"/>
<polygon fill="none" stroke="#000000" points="61.5,-224 61.5,-266 104.5,-266 104.5,-224 61.5,-224"/>
<text text-anchor="start" x="73.5" y="-248" font-family="Linux libertine" font-size="10.00" fill="#000000">sum</text>
<text text-anchor="start" x="66.5" y="-237" font-family="Linux libertine" font-size="10.00" fill="#000000">depth:1</text>
<polygon fill="none" stroke="#000000" points="104.5,-245 104.5,-266 148.5,-266 148.5,-245 104.5,-245"/>
<text text-anchor="start" x="114" y="-253" font-family="Linux libertine" font-size="10.00" fill="#000000">input:</text>
<polygon fill="none" stroke="#000000" points="148.5,-245 148.5,-266 211.5,-266 211.5,-245 148.5,-245"/>
<text text-anchor="start" x="153.5" y="-253" font-family="Linux libertine" font-size="10.00" fill="#000000">(1, 64, 800) </text>
<polygon fill="none" stroke="#000000" points="104.5,-224 104.5,-245 148.5,-245 148.5,-224 104.5,-224"/>
<text text-anchor="start" x="109.5" y="-232" font-family="Linux libertine" font-size="10.00" fill="#000000">output: </text>
<polygon fill="none" stroke="#000000" points="148.5,-224 148.5,-245 211.5,-245 211.5,-224 148.5,-224"/>
<text text-anchor="start" x="164.5" y="-232" font-family="Linux libertine" font-size="10.00" fill="#000000">(1, 64) </text>
</g>
<!-- 12&#45;&gt;13 -->
<g id="edge15" class="edge">
<title>12&#45;&gt;13</title>
<path fill="none" stroke="#000000" d="M123.4186,-301.6862C125.259,-293.7108 127.3884,-284.4836 129.3876,-275.8202"/>
<polygon fill="#000000" stroke="#000000" points="132.8114,-276.549 131.6497,-266.018 125.9906,-274.9749 132.8114,-276.549"/>
</g>
<!-- 16 -->
<g id="node17" class="node">
<title>16</title>
<polygon fill="#f0f8ff" stroke="transparent" points="292,-188 135,-188 135,-146 292,-146 292,-188"/>
<polygon fill="none" stroke="#000000" points="135.5,-146 135.5,-188 178.5,-188 178.5,-146 135.5,-146"/>
<text text-anchor="start" x="150.5" y="-170" font-family="Linux libertine" font-size="10.00" fill="#000000">div</text>
<text text-anchor="start" x="140.5" y="-159" font-family="Linux libertine" font-size="10.00" fill="#000000">depth:1</text>
<polygon fill="none" stroke="#000000" points="178.5,-167 178.5,-188 222.5,-188 222.5,-167 178.5,-167"/>
<text text-anchor="start" x="188" y="-175" font-family="Linux libertine" font-size="10.00" fill="#000000">input:</text>
<polygon fill="none" stroke="#000000" points="222.5,-167 222.5,-188 292.5,-188 292.5,-167 222.5,-167"/>
<text text-anchor="start" x="227.5" y="-175" font-family="Linux libertine" font-size="10.00" fill="#000000">(1, 64), (1, 1) </text>
<polygon fill="none" stroke="#000000" points="178.5,-146 178.5,-167 222.5,-167 222.5,-146 178.5,-146"/>
<text text-anchor="start" x="183.5" y="-154" font-family="Linux libertine" font-size="10.00" fill="#000000">output: </text>
<polygon fill="none" stroke="#000000" points="222.5,-146 222.5,-167 292.5,-167 292.5,-146 222.5,-146"/>
<text text-anchor="start" x="242" y="-154" font-family="Linux libertine" font-size="10.00" fill="#000000">(1, 64) </text>
</g>
<!-- 13&#45;&gt;16 -->
<g id="edge16" class="edge">
<title>13&#45;&gt;16</title>
<path fill="none" stroke="#000000" d="M157.5406,-223.6862C166.1839,-214.9306 176.3166,-204.6663 185.5672,-195.2956"/>
<polygon fill="#000000" stroke="#000000" points="188.2169,-197.5934 192.7515,-188.018 183.2353,-192.6757 188.2169,-197.5934"/>
</g>
<!-- 15 -->
<g id="node16" class="node">
<title>15</title>
<polygon fill="#f0f8ff" stroke="transparent" points="362,-266 239,-266 239,-224 362,-224 362,-266"/>
<polygon fill="none" stroke="#000000" points="239.5,-224 239.5,-266 282.5,-266 282.5,-224 239.5,-224"/>
<text text-anchor="start" x="247.5" y="-248" font-family="Linux libertine" font-size="10.00" fill="#000000">clamp</text>
<text text-anchor="start" x="244.5" y="-237" font-family="Linux libertine" font-size="10.00" fill="#000000">depth:1</text>
<polygon fill="none" stroke="#000000" points="282.5,-245 282.5,-266 326.5,-266 326.5,-245 282.5,-245"/>
<text text-anchor="start" x="292" y="-253" font-family="Linux libertine" font-size="10.00" fill="#000000">input:</text>
<polygon fill="none" stroke="#000000" points="326.5,-245 326.5,-266 362.5,-266 362.5,-245 326.5,-245"/>
<text text-anchor="start" x="331.5" y="-253" font-family="Linux libertine" font-size="10.00" fill="#000000">(1, 1) </text>
<polygon fill="none" stroke="#000000" points="282.5,-224 282.5,-245 326.5,-245 326.5,-224 282.5,-224"/>
<text text-anchor="start" x="287.5" y="-232" font-family="Linux libertine" font-size="10.00" fill="#000000">output: </text>
<polygon fill="none" stroke="#000000" points="326.5,-224 326.5,-245 362.5,-245 362.5,-224 326.5,-224"/>
<text text-anchor="start" x="331.5" y="-232" font-family="Linux libertine" font-size="10.00" fill="#000000">(1, 1) </text>
</g>
<!-- 14&#45;&gt;15 -->
<g id="edge17" class="edge">
<title>14&#45;&gt;15</title>
<path fill="none" stroke="#000000" d="M307.0407,-301.6862C306.1305,-293.7975 305.0789,-284.684 304.0888,-276.1029"/>
<polygon fill="#000000" stroke="#000000" points="307.5484,-275.5509 302.9252,-266.018 300.5946,-276.3533 307.5484,-275.5509"/>
</g>
<!-- 15&#45;&gt;16 -->
<g id="edge18" class="edge">
<title>15&#45;&gt;16</title>
<path fill="none" stroke="#000000" d="M276.7269,-223.6862C266.7677,-214.7572 255.0583,-204.2592 244.4408,-194.74"/>
<polygon fill="#000000" stroke="#000000" points="246.7253,-192.0875 236.9432,-188.018 242.0525,-197.2995 246.7253,-192.0875"/>
</g>
<!-- 17 -->
<g id="node18" class="node">
<title>17</title>
<polygon fill="#c1ffc1" stroke="transparent" points="284,-110 143,-110 143,-68 284,-68 284,-110"/>
<polygon fill="none" stroke="#000000" points="143.5,-68 143.5,-110 199.5,-110 199.5,-68 143.5,-68"/>
<text text-anchor="start" x="148.5" y="-92" font-family="Linux libertine" font-size="10.00" fill="#000000">Sequential</text>
<text text-anchor="start" x="155" y="-81" font-family="Linux libertine" font-size="10.00" fill="#000000">depth:1</text>
<polygon fill="none" stroke="#000000" points="199.5,-89 199.5,-110 243.5,-110 243.5,-89 199.5,-89"/>
<text text-anchor="start" x="209" y="-97" font-family="Linux libertine" font-size="10.00" fill="#000000">input:</text>
<polygon fill="none" stroke="#000000" points="243.5,-89 243.5,-110 284.5,-110 284.5,-89 243.5,-89"/>
<text text-anchor="start" x="248.5" y="-97" font-family="Linux libertine" font-size="10.00" fill="#000000">(1, 64) </text>
<polygon fill="none" stroke="#000000" points="199.5,-68 199.5,-89 243.5,-89 243.5,-68 199.5,-68"/>
<text text-anchor="start" x="204.5" y="-76" font-family="Linux libertine" font-size="10.00" fill="#000000">output: </text>
<polygon fill="none" stroke="#000000" points="243.5,-68 243.5,-89 284.5,-89 284.5,-68 243.5,-68"/>
<text text-anchor="start" x="248.5" y="-76" font-family="Linux libertine" font-size="10.00" fill="#000000">(1, 10) </text>
</g>
<!-- 16&#45;&gt;17 -->
<g id="edge19" class="edge">
<title>16&#45;&gt;17</title>
<path fill="none" stroke="#000000" d="M213.5,-145.6862C213.5,-137.7975 213.5,-128.684 213.5,-120.1029"/>
<polygon fill="#000000" stroke="#000000" points="217.0001,-120.018 213.5,-110.018 210.0001,-120.018 217.0001,-120.018"/>
</g>
<!-- 18 -->
<g id="node19" class="node">
<title>18</title>
<polygon fill="#ffffe0" stroke="transparent" points="266.5,-32 160.5,-32 160.5,0 266.5,0 266.5,-32"/>
<polygon fill="none" stroke="#000000" points="160.5,0 160.5,-32 228.5,-32 228.5,0 160.5,0"/>
<text text-anchor="start" x="165.5" y="-19" font-family="Linux libertine" font-size="10.00" fill="#000000">output&#45;tensor</text>
<text text-anchor="start" x="178" y="-8" font-family="Linux libertine" font-size="10.00" fill="#000000">depth:0</text>
<polygon fill="none" stroke="#000000" points="228.5,0 228.5,-32 266.5,-32 266.5,0 228.5,0"/>
<text text-anchor="start" x="233.5" y="-13.5" font-family="Linux libertine" font-size="10.00" fill="#000000">(1, 10)</text>
</g>
<!-- 17&#45;&gt;18 -->
<g id="edge20" class="edge">
<title>17&#45;&gt;18</title>
<path fill="none" stroke="#000000" d="M213.5,-67.8854C213.5,-59.9505 213.5,-50.8282 213.5,-42.4674"/>
<polygon fill="#000000" stroke="#000000" points="217.0001,-42.4309 213.5,-32.431 210.0001,-42.431 217.0001,-42.4309"/>
</g>
</g>
</svg>
